<?xml version="1.0" standalone="no"?>
<!DOCTYPE svg PUBLIC "-//W3C//DTD SVG 20010904//EN"
 "http://www.w3.org/TR/2001/REC-SVG-20010904/DTD/svg10.dtd">
<svg version="1.0" xmlns="http://www.w3.org/2000/svg"
 width="700.000000pt" height="700.000000pt" viewBox="0 0 700.000000 700.000000"
 preserveAspectRatio="xMidYMid meet">
<metadata>
Created by potrace 1.14, written by Peter Selinger 2001-2017
</metadata>
<g transform="translate(0.000000,700.000000) scale(0.100000,-0.100000)"
fill="#000000" stroke="none">
<path d="M1980 5156 c0 -246 4 -377 10 -381 15 -10 99 34 111 58 11 20 18 188
19 433 l0 120 1345 0 1345 0 0 -40 c1 -1010 5 -1252 23 -1287 22 -44 64 -92
95 -108 19 -10 22 -9 23 6 5 71 14 1500 10 1561 -1 9 -306 12 -1491 12 l-1490
0 0 -374z"/>
<path d="M2958 5200 c-22 -6 -23 -10 -24 -117 l-2 -112 57 2 c66 2 102 -16
127 -65 15 -28 16 -135 18 -1137 1 -1095 1 -1107 -20 -1171 -52 -163 -138
-253 -268 -280 -181 -37 -333 64 -376 252 -5 24 -8 98 -7 166 l2 123 -244 -2
-243 -1 7 -92 c12 -167 27 -230 81 -339 112 -228 315 -368 583 -402 387 -50
756 176 871 535 18 58 20 95 20 723 2 1482 4 1599 24 1633 25 41 69 61 129 58
l47 -3 0 114 0 115 -257 0 c-142 1 -313 2 -380 3 -67 1 -132 0 -145 -3z"/>
<path d="M2511 4954 c-98 -26 -157 -73 -196 -156 -23 -50 -34 -171 -16 -182 5
-3 130 -6 277 -7 210 0 269 3 275 13 10 15 3 98 -13 148 -40 131 -194 217
-327 184z m237 -218 c21 -13 14 -46 -10 -47 -88 -6 -330 -4 -347 3 -32 12 -11
46 32 50 62 6 313 2 325 -6z"/>
<path d="M4051 4870 c-4 -3 -28 -68 -53 -145 -25 -77 -127 -385 -226 -685
l-179 -545 -1 -252 -2 -253 38 0 37 0 30 93 30 92 373 2 373 2 9 -22 c11 -25
120 -372 120 -381 0 -12 -31 -5 -157 34 l-128 40 -60 -42 c-109 -76 -925 -684
-1255 -934 -170 -130 -180 -138 -180 -152 0 -6 24 -16 53 -22 139 -33 304
-103 406 -173 25 -16 79 -59 120 -94 86 -75 51 -86 279 84 84 62 156 113 161
113 5 0 54 -18 109 -40 108 -43 178 -52 232 -30 60 25 40 45 -110 110 -52 23
-98 45 -102 49 -4 4 47 48 115 98 340 252 508 373 517 373 6 0 69 -23 141 -50
163 -64 184 -68 209 -45 11 10 20 21 20 25 0 10 -78 44 -345 150 -353 140
-513 200 -538 200 -24 0 -54 -37 -40 -50 4 -4 96 -42 203 -85 107 -42 199 -81
204 -85 5 -5 -56 -56 -135 -115 -79 -58 -155 -115 -169 -125 -367 -275 -654
-479 -664 -472 -120 95 -220 151 -346 196 -41 15 -81 29 -88 31 -13 5 206 171
713 545 108 80 202 150 208 155 7 6 51 39 99 73 l86 63 164 -64 c451 -177 541
-212 636 -248 116 -44 132 -46 156 -20 24 27 12 34 -169 104 -49 19 -180 70
-290 112 -284 110 -294 114 -353 135 -85 31 -84 27 -10 83 43 32 51 32 115 11
188 -63 775 -275 830 -300 17 -8 36 -14 41 -14 11 0 19 -34 21 -87 1 -27 -7
-37 -61 -79 -35 -26 -173 -131 -308 -232 -531 -401 -692 -526 -698 -540 -6
-16 52 -72 74 -72 6 0 182 129 390 286 208 158 457 345 552 417 l173 130 -3
120 -3 120 -203 77 c-112 43 -206 80 -208 83 -3 3 11 11 30 18 20 7 36 19 36
26 0 16 -322 999 -664 2023 l-61 185 -143 0 c-79 0 -146 -2 -151 -5z m87 -615
c11 -33 39 -121 62 -195 23 -74 48 -153 55 -175 8 -22 32 -101 55 -175 23 -74
50 -161 60 -192 12 -39 15 -60 8 -64 -13 -9 -546 -10 -554 -1 -5 5 43 168 66
222 5 11 52 153 106 315 94 285 112 335 119 328 2 -1 12 -30 23 -63z"/>
<path d="M2300 4552 c-6 -2 -10 -21 -10 -43 l0 -39 218 0 c119 0 222 -4 227
-8 17 -12 12 -34 -10 -43 -11 -4 -113 -8 -227 -8 l-208 -1 0 -38 0 -38 163 -1
c311 -2 297 -1 297 -22 0 -11 -4 -22 -9 -26 -6 -3 -110 -5 -232 -5 l-222 0 6
-54 c10 -100 58 -175 147 -232 38 -24 57 -29 121 -31 65 -2 84 2 128 23 69 35
126 102 149 174 2 8 6 101 9 205 l5 190 -271 0 c-149 0 -276 -1 -281 -3z"/>
<path d="M2142 4255 c3 -158 4 -161 37 -230 91 -186 285 -282 487 -239 145 30
258 131 313 278 18 47 23 89 27 206 l6 147 -48 -2 c-26 0 -49 -5 -50 -10 -2
-6 -4 -69 -7 -142 -3 -126 -5 -135 -37 -198 -37 -72 -86 -121 -159 -157 -38
-19 -62 -23 -136 -23 -76 0 -98 4 -145 26 -106 50 -179 153 -188 264 -3 33 -6
99 -6 147 -1 49 -3 88 -6 89 -3 1 -25 2 -48 3 l-44 2 4 -161z"/>
<path d="M1982 3678 c-1 -412 -1 -408 63 -408 68 0 66 -8 66 336 l1 310 -28
46 c-16 26 -44 56 -65 67 l-37 21 0 -372z"/>
<path d="M2493 3692 c-20 -3 -22 -10 -25 -70 -2 -37 -2 -96 0 -132 l3 -65 100
0 c82 0 99 2 100 15 1 25 1 224 0 242 -1 15 -12 17 -78 15 -43 -1 -88 -3 -100
-5z"/>
<path d="M2444 3342 c-89 -32 -175 -110 -204 -186 l-10 -27 324 2 c178 1 329
5 336 9 33 20 -79 147 -164 186 -76 35 -209 43 -282 16z"/>
<path d="M3910 2350 c-11 -11 -20 -24 -20 -29 0 -9 83 -45 252 -111 95 -37 98
-38 120 -20 33 27 15 41 -130 100 -202 83 -199 83 -222 60z"/>
<path d="M1980 1945 l-1 -275 153 0 c160 -1 527 -1 566 0 21 0 22 4 22 68 l0
67 -300 0 -300 0 0 35 c-2 134 -12 236 -26 266 -16 34 -89 114 -105 114 -4 0
-8 -124 -9 -275z"/>
<path d="M3726 2201 c-17 -19 -17 -20 6 -35 36 -23 313 -136 335 -136 22 0 43
18 43 37 0 7 -19 21 -42 32 -80 36 -298 121 -312 121 -7 0 -21 -9 -30 -19z"/>
<path d="M3521 2073 c-27 -19 -27 -40 1 -49 13 -4 50 -19 83 -35 183 -84 254
-102 268 -65 10 26 -46 55 -255 135 -69 26 -79 27 -97 14z"/>
<path d="M4409 1976 c-46 -22 -34 -41 49 -79 106 -48 127 -53 157 -33 14 9 23
21 20 27 -6 9 -88 49 -166 82 -29 12 -42 13 -60 3z"/>
<path d="M3291 1893 c-39 -27 -37 -28 144 -107 95 -42 195 -77 211 -74 9 1 22
11 28 21 16 26 -1 36 -168 103 -184 74 -190 75 -215 57z"/>
<path d="M4172 1828 c-7 -7 -12 -18 -12 -26 0 -13 76 -52 178 -90 47 -18 50
-18 73 -1 33 25 17 39 -101 88 -107 44 -120 47 -138 29z"/>
</g>
</svg>
